# xmcd CD database file
#
# Track frame offsets:
#	150
#	18162
#	33010
#	49960
#	64735
#	95487
#	111082
#	125935
#	143785
#	159762
#	183307
#	198015
#
# Disc length: 2905 seconds
#
# Revision: 2
# Processed by: cddbd v1.4PL0 Copyright (c) Steve Scherf et al.
# Submitted via: CDex 1.50
#
DISCID=990b570c
DTITLE=Tab Benoit - What I Live For
DYEAR=1994
DGENRE=Blues
TTITLE0=Blues Come Walkin' In
TTITLE1=Who's Been Talkin'
TTITLE2=Cross The Line
TTITLE3=Time And Time Again
TTITLE4=Cherry Tree Blues
TTITLE5=Somehow
TTITLE6=She's My Number One
TTITLE7=Too Many Drivers At the Wheel
TTITLE8=Night Life
TTITLE9=Don't Cut Off Your Hair
TTITLE10=Wide Open
TTITLE11=What I Live For
EXTD=YEAR: 1994
EXTT0=
EXTT1=
EXTT2=
EXTT3=
EXTT4=
EXTT5=
EXTT6=
EXTT7=
EXTT8=
EXTT9=
EXTT10=
EXTT11=
PLAYORDER=
